<?xml version="1.0" encoding="UTF-8" standalone="no"?>
<svg
   version="1.1"
   preserveAspectRatio="none"
   width="333.30142"
   height="42.072346"
   viewBox="0 0 333.30142 42.072346"
   id="svg8"
   sodipodi:docname="logoFina2l.svg"
   inkscape:version="1.4 (86a8ad7, 2024-10-11)"
   xmlns:inkscape="http://www.inkscape.org/namespaces/inkscape"
   xmlns:sodipodi="http://sodipodi.sourceforge.net/DTD/sodipodi-0.dtd"
   xmlns="http://www.w3.org/2000/svg"
   xmlns:svg="http://www.w3.org/2000/svg">
  <defs
     id="defs8" />
  <sodipodi:namedview
     id="namedview8"
     pagecolor="#ffffff"
     bordercolor="#111111"
     borderopacity="1"
     inkscape:showpageshadow="0"
     inkscape:pageopacity="0"
     inkscape:pagecheckerboard="1"
     inkscape:deskcolor="#d1d1d1"
     inkscape:zoom="3.228"
     inkscape:cx="164.80793"
     inkscape:cy="20.600991"
     inkscape:window-width="1920"
     inkscape:window-height="1009"
     inkscape:window-x="1912"
     inkscape:window-y="-8"
     inkscape:window-maximized="1"
     inkscape:current-layer="g7" />
  <g
     opacity="1"
     id="g7"
     transform="matrix(1.001395,0,0,1.001395,-82.018652,-354.95286)">
    <g
       id="g5"
       transform="matrix(0.31574576,0,0,0.31143432,123.20867,346.67253)"
       style="fill:#f1ec40;fill-opacity:1">
      <path
         d="M 144.843,92.452 C 144.843,55.242 114.593,25 77.422,25 40.251,25 10,55.242 10,92.452 c 0,37.21 30.25,67.452 67.421,67.452 37.171,0 67.422,-30.243 67.422,-67.452 z m -67.422,61.354 c -33.832,0 -61.323,-27.532 -61.323,-61.355 0,-33.823 27.492,-61.354 61.323,-61.354 33.831,0 61.323,27.532 61.323,61.355 0,33.823 -27.491,61.354 -61.323,61.354 z"
         data-color="1"
         class="icon1"
         id="path4"
         style="fill:#f1ec40;fill-opacity:1" />
      <path
         d="m 77.421,41.452 c -28.169,0 -51.014,22.839 -51.014,51 0,28.161 22.845,51 51.014,51 28.169,0 51.014,-22.839 51.014,-51 0,-28.161 -22.845,-51 -51.014,-51 z m 12.633,70.5 c -2.13,2.758 -5.034,4.597 -8.505,5.565 v 6.81 h -5.808 v -6.616 c -4.031,-0.677 -7.225,-2.129 -9.403,-4.306 -2.178,-2.177 -3.824,-5.565 -4.84,-10.113 l 7.018,-1.452 c 0.968,3.242 2.13,5.516 3.485,6.919 1.452,1.306 3.388,1.984 5.76,1.984 2.323,0 4.308,-0.774 5.856,-2.274 1.549,-1.5 2.323,-3.387 2.323,-5.758 0,-2.081 -0.629,-3.774 -1.936,-5.081 C 83.326,97 82.358,96.323 81.1,95.548 79.793,94.774 78.196,93.951 76.163,93.032 72.049,91.193 69.339,89.5 68.032,87.951 65.951,85.628 64.934,82.87 64.934,79.628 c 0,-1.548 0.242,-2.952 0.726,-4.258 0.484,-1.306 1.21,-2.516 2.13,-3.581 0.92,-1.065 2.081,-1.984 3.436,-2.806 1.355,-0.774 2.904,-1.403 4.999,-1.839 v -6.206 h 4.84 v 6.109 c 2.842,0.387 4.875,1.21 6.472,2.468 1.597,1.258 3.098,3.194 4.55,5.758 l -6.195,3.484 c -1.888,-3.387 -4.308,-5.081 -7.308,-5.081 -1.888,0 -3.436,0.532 -4.646,1.645 -1.21,1.113 -1.839,2.468 -1.839,4.161 0,1.5 0.484,2.758 1.5,3.774 0.968,0.968 2.952,2.129 5.905,3.484 2.565,1.161 4.695,2.274 6.389,3.29 1.694,1.016 2.952,2.032 3.775,3 2.42,2.613 3.582,5.71 3.582,9.387 0.095,3.583 -1.018,6.777 -3.196,9.535 z"
         data-color="1"
         class="icon1"
         id="path5"
         style="fill:#f1ec40;fill-opacity:1" />
    </g>
    <path
       id="path8"
       d="m 180.91138,-77.661685 h 5.16 l -4.69,26.25 c -0.10667,0.52 -0.34333,0.97 -0.71,1.35 -0.36,0.38 -0.8,0.62 -1.32,0.72 v 0 c -0.53333,0.09333 -1.04,0.03667 -1.52,-0.17 -0.47333,-0.213334 -0.84667,-0.54 -1.12,-0.98 v 0 l -9.3,-15.27 -9.31,15.27 c -0.22667,0.38 -0.53,0.673333 -0.91,0.88 -0.38667,0.206666 -0.8,0.31 -1.24,0.31 v 0 c -0.61333,0 -1.15333,-0.193334 -1.62,-0.58 -0.47333,-0.393334 -0.76,-0.903334 -0.86,-1.53 v 0 l -4.73,-26.25 h 5.16 l 3.36,18.5 8,-12.78 c 0.22667,-0.373333 0.53,-0.663333 0.91,-0.87 0.38667,-0.213333 0.8,-0.32 1.24,-0.32 v 0 c 0.44667,0 0.85667,0.106667 1.23,0.32 0.38,0.206667 0.69333,0.496667 0.94,0.87 v 0 l 7.97,12.78 z m 14.61,0 v 28.01 h -5.08 v -28.01 z m 33.92,0 v 25.84 c 0,0.366666 -0.0667,0.706666 -0.2,1.02 -0.14,0.313333 -0.32333,0.583333 -0.55,0.81 -0.22667,0.226666 -0.49667,0.406666 -0.81,0.54 -0.31333,0.126666 -0.64333,0.19 -0.99,0.19 v 0 c -0.31333,0 -0.63,-0.06 -0.95,-0.18 -0.32,-0.113334 -0.60333,-0.3 -0.85,-0.56 v 0 l -18.56,-19.38 v 19.73 h -5.07 v -25.84 c 0,-0.52 0.14667,-0.993333 0.44,-1.42 0.28667,-0.42 0.66,-0.733333 1.12,-0.94 v 0 c 0.48,-0.2 0.97333,-0.25 1.48,-0.15 0.50667,0.1 0.94333,0.336667 1.31,0.71 v 0 l 18.56,19.36 v -19.73 z"
       sodipodi:nodetypes="ccccsscsccccsscsccccccsscscccccccccscscsscsccccscsssscccc"
       transform="matrix(1.3894111,0,0,1.3894147,95.953103,464.71509)"
       style="fill:#e6e6e6;fill-opacity:1" />
    <path
       id="path10"
       d="m 12.109728,-50.292487 v 11.44 c 0,0.366666 -0.06667,0.706666 -0.2,1.02 -0.126667,0.313333 -0.306667,0.583333 -0.54,0.81 -0.226667,0.226666 -0.496667,0.403333 -0.81,0.53 -0.313333,0.133333 -0.6499997,0.2 -1.0099997,0.2 v 0 h -18.32 c -0.4733333,0 -0.98,-0.05667 -1.5200003,-0.17 -0.54,-0.106667 -1.073333,-0.276667 -1.6,-0.51 -0.526666,-0.24 -1.03,-0.543334 -1.51,-0.91 -0.48,-0.373334 -0.906666,-0.823334 -1.28,-1.35 -0.373333,-0.526667 -0.67,-1.14 -0.89,-1.84 -0.22,-0.693334 -0.33,-1.476667 -0.33,-2.35 v 0 -13.75 c 0,-0.466667 0.05333,-0.97 0.16,-1.51 0.113334,-0.54 0.286667,-1.073333 0.52,-1.6 0.233334,-0.533333 0.54,-1.04 0.92,-1.52 0.38,-0.48 0.833334,-0.906667 1.36,-1.28 0.526667,-0.366667 1.133334,-0.663333 1.82,-0.89 0.693334,-0.22 1.476667,-0.33 2.3500003,-0.33 v 0 H 11.869728 v 5.08 H -8.7702717 c -0.6666667,0 -1.1766667,0.176667 -1.5300003,0.53 -0.346666,0.346667 -0.52,0.866667 -0.52,1.56 v 0 13.71 c 0,0.653333 0.176667,1.156666 0.53,1.51 0.3600003,0.36 0.866667,0.54 1.5200003,0.54 v 0 h 15.8 v -6.37 h -13.52 v -5.11 h 16.04 c 0.36,0 0.6966667,0.06667 1.0099997,0.2 0.313333,0.14 0.583333,0.326667 0.81,0.56 0.233333,0.233333 0.413333,0.503333 0.54,0.81 0.133333,0.306667 0.2,0.636667 0.2,0.99 z m 65.43,8.92 v 5.08 h -23.17 c -0.366667,0 -0.703333,-0.06667 -1.01,-0.2 -0.313333,-0.126667 -0.583333,-0.303334 -0.81,-0.53 -0.233333,-0.226667 -0.413333,-0.496667 -0.54,-0.81 -0.133333,-0.313334 -0.2,-0.653334 -0.2,-1.02 v 0 -25.45 h 5.08 v 22.93 z m 31.680002,-11.21 v 4.57 c 0,1.706667 -0.29667,3.276666 -0.89,4.71 -0.59333,1.433333 -1.41,2.666666 -2.45,3.7 -1.04667,1.033333 -2.28667,1.843333 -3.72,2.43 -1.42667,0.586666 -2.980002,0.88 -4.660002,0.88 v 0 h -13.71 c -0.36667,0 -0.70667,-0.06667 -1.02,-0.2 -0.31333,-0.126667 -0.58333,-0.303334 -0.81,-0.53 -0.22667,-0.226667 -0.40667,-0.496667 -0.54,-0.81 -0.126667,-0.313334 -0.19,-0.653334 -0.19,-1.02 v 0 -22.89 c 0,-0.353333 0.06333,-0.686667 0.19,-1 0.13333,-0.306667 0.31333,-0.58 0.54,-0.82 0.22667,-0.233333 0.49667,-0.413333 0.81,-0.54 0.31333,-0.133333 0.65333,-0.2 1.02,-0.2 v 0 h 13.71 c 1.68,0 3.233332,0.293333 4.660002,0.88 1.43333,0.586667 2.67333,1.396667 3.72,2.43 1.04,1.04 1.85667,2.276667 2.45,3.71 0.59333,1.44 0.89,3.006667 0.89,4.7 z m -5.08,4.57 v -4.57 c 0,-0.986667 -0.16,-1.89 -0.48,-2.71 -0.32,-0.82 -0.77333,-1.52 -1.36,-2.1 -0.58667,-0.58 -1.28667,-1.03 -2.1,-1.35 -0.813332,-0.32 -1.713332,-0.48 -2.700002,-0.48 v 0 h -11.19 v 17.85 h 11.19 c 0.98667,0 1.88667,-0.16 2.700002,-0.48 0.81333,-0.32 1.51333,-0.766667 2.1,-1.34 0.58667,-0.58 1.04,-1.276667 1.36,-2.09 0.32,-0.813334 0.48,-1.723333 0.48,-2.73 z"
       sodipodi:nodetypes="sscccscscccscscsccsccscccssscssscccccscccsccscccscccccsssccscscscscscccscscccssssssscccsscss"
       transform="matrix(1.3894111,0,0,1.3894147,103.99641,445.84427)"
       style="fill:#e6e6e6" />
    <path
       id="path1"
       d="m 298.10783,388.36073 v 7.05822 h -35.73566 v -13.0466 c 0,-0.67618 0.0741,-1.38941 0.22231,-2.1397 0.15746,-0.75028 0.3983,-1.49594 0.72249,-2.23696 0.3242,-0.74102 0.74566,-1.44499 1.26437,-2.11191 0.51871,-0.67618 1.14394,-1.26899 1.8757,-1.77845 0.73176,-0.51871 1.57466,-0.9309 2.52873,-1.23658 0.96332,-0.30567 2.0517,-0.4585 3.26512,-0.4585 v 0 h 15.89486 c 0.96332,0 1.67192,-0.24083 2.1258,-0.7225 0.46313,-0.48166 0.6947,-1.181 0.6947,-2.09801 v 0 -3.12619 c 0,-0.96332 -0.23157,-1.68582 -0.6947,-2.16748 -0.4724,-0.49093 -1.16248,-0.73639 -2.07022,-0.73639 v 0 h -22.6613 v -7.05823 h 22.6613 c 1.19489,0 2.26936,0.15283 3.22343,0.45851 0.96332,0.31493 1.81086,0.72712 2.54262,1.23657 0.73176,0.51872 1.36163,1.11154 1.8896,1.77846 0.51871,0.66691 0.94943,1.37089 1.29215,2.11191 0.33346,0.73175 0.57429,1.47278 0.7225,2.22306 0.15746,0.75028 0.2362,1.44962 0.2362,2.09802 v 0 3.18176 c 0,1.82476 -0.32883,3.36701 -0.98648,4.62675 -0.66692,1.25047 -1.49594,2.26937 -2.48705,3.05671 -0.99111,0.78733 -2.06096,1.35699 -3.20954,1.70898 -1.15784,0.35198 -2.23232,0.52798 -3.22343,0.52798 v 0 h -15.95044 c -0.58356,0 -1.04669,0.0834 -1.38941,0.25009 -0.34273,0.16673 -0.61134,0.38441 -0.80586,0.65303 -0.18525,0.26862 -0.32419,0.57429 -0.41683,0.91701 -0.0927,0.34272 -0.1621,0.69007 -0.20841,1.04206 v 0 5.98838 z"
       sodipodi:nodetypes="cccscscccscscscscscccscccccscscscscsscssccc"
       style="fill:#f1ec40;fill-opacity:1;stroke-width:1.38941" />
  </g>
</svg>
